# File created by Blade
# Date/Time:  Tue Jan 27 18:05:51 2015
#---------------------------------------------------------
:version 1.10
:name HOM
:units
  mass 1.0
  length 1.000000
  angle deg
:documentation
     Acclaim Skeleton File
:root
   axis xyz
   order TX TY TZ RX RY RZ
   position 0.000000 0.000000 0.000000
   orientation 0 0 0
:bonedata
   begin
      id 1
      name Spine_dum
      direction 0.000000 1.000000 0.000000
      length 5.195262
      axis 0.0 0.0 0.0 xyz
   end
   begin
      id 2
      name LeftUpLeg_dum
      direction 1.000000 0.000000 0.000000
      length 3.351363
      axis 0.0 0.0 0.0 xyz
   end
   begin
      id 3
      name RightUpLeg_dum
      direction -1.000000 0.000000 0.000000
      length 3.351363
      axis 0.0 0.0 0.0 xyz
   end
   begin
      id 4
      name Spine
      direction 0.000000 1.000000 0.000000
      length 0.000000
      axis 0.0 0.0 0.0 xyz
      dof rx ry rz
   end
   begin
      id 5
      name Spine_dum1
      direction 0.000000 1.000000 0.000000
      length 15.653875
      axis 0.0 0.0 0.0 xyz
   end
   begin
      id 6
      name Spine_dum2
      direction 0.000000 1.000000 0.000000
      length 10.329768
      axis 0.0 0.0 0.0 xyz
   end
   begin
      id 7
      name Spine_dum3
      direction 0.000000 1.000000 0.000000
      length 10.329768
      axis 0.0 0.0 0.0 xyz
   end
   begin
      id 8
      name Head
      direction 0.000000 1.000000 0.000000
      length 4.527550
      axis 0.0 0.0 0.0 xyz
      dof rx ry rz
   end
   begin
      id 9
      name LeftShoulder
      direction 1.000000 0.000000 0.000000
      length 6.996006
      axis 0.0 0.0 -90.0 xyz
      dof rx ry rz
   end
   begin
      id 10
      name LeftArm
      direction 1.000000 0.000000 0.000000
      length 10.209302
      axis 0.0 0.0 -90.0 xyz
      dof rx ry rz
   end
   begin
      id 11
      name LeftForeArm
      direction 1.000000 0.000000 0.000000
      length 8.563163
      axis 0.0 0.0 -90.0 xyz
      dof ry rz rx
   end
   begin
      id 12
      name LeftHand
      direction 0.000000 0.000000 0.000000
      length 0.000000
      axis 0.0 0.0 -90.0 xyz
      dof rx ry rz
   end
   begin
      id 13
      name LeftHand_dum1
      direction 0.000000 0.000000 0.000000
      length 0.000000
      axis 0.0 0.0 -90.0 xyz
   end
   begin
      id 14
      name LeftHand_dum2
      direction 1.000000 0.000000 0.000000
      length 3.937000
      axis 0.0 0.0 -90.0 xyz
   end
   begin
      id 15
      name LeftHandThumb1
      direction 0.000000 0.000000 1.000000
      length 3.937000
      axis 0.0 0.0 -90.0 xyz
      dof rx rz ry
   end
   begin
      id 16
      name RightShoulder
      direction -1.000000 0.000000 0.000000
      length 6.996006
      axis 0.0 0.0 90.0 xyz
      dof rx ry rz
   end
   begin
      id 17
      name RightArm
      direction -1.000000 0.000000 0.000000
      length 10.209302
      axis 0.0 0.0 90.0 xyz
      dof rx ry rz
   end
   begin
      id 18
      name RightForeArm
      direction -1.000000 0.000000 0.000000
      length 8.563163
      axis 0.0 0.0 90.0 xyz
      dof ry rz rx
   end
   begin
      id 19
      name RightHand
      direction 0.000000 0.000000 0.000000
      length 0.000000
      axis 0.0 0.0 90.0 xyz
      dof rx ry rz
   end
   begin
      id 20
      name RightHand_dum1
      direction 0.000000 0.000000 0.000000
      length 0.000000
      axis 0.0 0.0 90.0 xyz
   end
   begin
      id 21
      name RightHand_dum2
      direction -1.000000 0.000000 0.000000
      length 3.937000
      axis 0.0 0.0 90.0 xyz
   end
   begin
      id 22
      name RightHandThumb1
      direction 0.000000 0.000000 1.000000
      length 3.937000
      axis 0.0 0.0 90.0 xyz
      dof rx rz ry
   end
   begin
      id 23
      name LeftUpLeg
      direction 0.000000 -1.000000 0.000000
      length 16.346831
      axis 0.0 0.0 0.0 xyz
      dof rx ry rz
   end
   begin
      id 24
      name LeftLeg
      direction 0.000000 -1.000000 0.000000
      length 13.959795
      axis 0.0 0.0 0.0 xyz
      dof rx ry rz
   end
   begin
      id 25
      name LeftFoot
      direction 0.000000 -0.258819 0.965926
      length 5.165550
      axis 15.0 0.0 0.0 xyz
      dof rx ry rz
   end
   begin
      id 26
      name LeftToeBase
      direction 0.000000 0.000000 1.000000
      length 2.952750
      axis 0.0 0.0 0.0 xyz
      dof rx ry rz
   end
   begin
      id 27
      name RightUpLeg
      direction 0.000000 -1.000000 0.000000
      length 16.346831
      axis 0.0 0.0 0.0 xyz
      dof rx ry rz
   end
   begin
      id 28
      name RightLeg
      direction 0.000000 -1.000000 0.000000
      length 13.959795
      axis 0.0 0.0 0.0 xyz
      dof rx ry rz
   end
   begin
      id 29
      name RightFoot
      direction 0.000000 -0.258819 0.965926
      length 5.165550
      axis 15.0 0.0 0.0 xyz
      dof rx ry rz
   end
   begin
      id 30
      name RightToeBase
      direction 0.000000 0.000000 1.000000
      length 2.952750
      axis 0.0 0.0 0.0 xyz
      dof rx ry rz
   end
:hierarchy
   begin
      root Spine_dum LeftUpLeg_dum RightUpLeg_dum
      Spine_dum Spine
      LeftUpLeg_dum LeftUpLeg
      RightUpLeg_dum RightUpLeg
      Spine Spine_dum1 Spine_dum2 Spine_dum3
      Spine_dum1 Head
      Spine_dum2 LeftShoulder
      Spine_dum3 RightShoulder
      LeftShoulder LeftArm
      LeftArm LeftForeArm
      LeftForeArm LeftHand
      LeftHand LeftHand_dum1 LeftHand_dum2
      LeftHand_dum1 LeftHandThumb1
      RightShoulder RightArm
      RightArm RightForeArm
      RightForeArm RightHand
      RightHand RightHand_dum1 RightHand_dum2
      RightHand_dum1 RightHandThumb1
      LeftUpLeg LeftLeg
      LeftLeg LeftFoot
      LeftFoot LeftToeBase
      RightUpLeg RightLeg
      RightLeg RightFoot
      RightFoot RightToeBase
   end

# File created by Blade
# Date/Time:  Tue Jan 27 18:05:41 2015
# Frame Rate: 120.000 fps
#------------------------------------------------------
:FULLY-SPECIFIED
:DEGREES
585
root -1.521021 31.896221 -6.509031 5.839897 16.686328 4.547070
Spine -7.972033 2.091888 -0.761518
Head -0.845724 -15.683993 8.428036
LeftShoulder -7.737779 16.040032 6.078940
LeftArm 24.145565 41.310166 -71.590110
LeftForeArm -3.452243 -0.000000 15.098074
LeftHand -10.627929 -0.000000 -5.474939
LeftHandThumb1 -26.253704 0.000000 33.147579
RightShoulder 4.296671 43.644783 -38.230826
RightArm 49.181587 15.269365 116.481204
RightForeArm 23.151374 0.000000 104.621473
RightHand -7.539212 -0.000000 2.431865
RightHandThumb1 -24.326973 -0.000000 -32.862282
LeftUpLeg -2.308170 -6.523489 -1.102607
LeftLeg 1.339938 -0.000000 -0.000000
LeftFoot -14.896366 13.164228 -24.331736
LeftToeBase 8.548502 -0.000000 -0.000000
RightUpLeg 3.616278 -9.841371 -3.933798
RightLeg -3.958365 -0.000000 0.000000
RightFoot -16.373424 -17.691417 10.683351
RightToeBase 5.275411 -0.000000 -0.000000
586
root -1.520622 31.896298 -6.510295 5.837006 16.688107 4.545067
Spine -7.974659 2.106621 -0.759684
Head -0.824029 -15.691651 8.397349
LeftShoulder -7.729834 16.045683 6.077460
LeftArm 24.151670 41.293198 -71.593272
LeftForeArm -3.432644 -0.000000 15.093148
LeftHand -10.610105 0.000000 -5.508259
LeftHandThumb1 -26.253704 0.000000 33.147579
RightShoulder 4.302399 43.630553 -38.245706
RightArm 49.157267 15.343666 116.557988
RightForeArm 23.321676 -0.000000 104.711753
RightHand -7.489167 -0.000000 2.577514
RightHandThumb1 -24.326973 -0.000000 -32.862282
LeftUpLeg -2.310047 -6.525135 -1.102274
LeftLeg 1.343731 -0.000000 -0.000000
LeftFoot -14.883369 13.176575 -24.298825
LeftToeBase 8.500540 -0.000000 -0.000000
RightUpLeg 3.617636 -9.824029 -3.932649
RightLeg -3.959057 -0.000000 0.000000
RightFoot -16.374379 -17.695407 10.704315
RightToeBase 5.253134 -0.000000 -0.000000
587
root -1.520797 31.896533 -6.511273 5.836075 16.683401 4.545657
Spine -7.975384 2.120192 -0.765464
Head -0.808575 -15.688895 8.369364
LeftShoulder -7.727129 16.041429 6.082724
LeftArm 24.147013 41.287334 -71.601548
LeftForeArm -3.426685 0.000000 15.094353
LeftHand -10.611530 -0.000000 -5.286966
LeftHandThumb1 -26.253704 0.000000 33.147579
RightShoulder 4.316864 43.623784 -38.242720
RightArm 49.134759 15.425776 116.646186
RightForeArm 23.550972 0.000000 104.829907
RightHand -7.456524 -0.000000 2.712582
RightHandThumb1 -24.326973 -0.000000 -32.862282
LeftUpLeg -2.308395 -6.521197 -1.103374
LeftLeg 1.339350 -0.000000 -0.000000
LeftFoot -14.880073 13.175174 -24.315517
LeftToeBase 8.504795 -0.000000 -0.000000
RightUpLeg 3.613550 -9.819333 -3.933583
RightLeg -3.952300 -0.000000 0.000000
RightFoot -16.381133 -17.691675 10.721309
RightToeBase 5.246269 -0.000000 -0.000000
588
root -1.519954 31.896934 -6.511618 5.835158 16.685085 4.549317
Spine -7.984709 2.131355 -0.772935
Head -0.743661 -15.687878 8.295207
LeftShoulder -7.712168 16.041274 6.085787
LeftArm 24.135622 41.272872 -71.615073
LeftForeArm -3.431830 0.000000 15.083098
LeftHand -10.620569 -0.000000 -5.482789
LeftHandThumb1 -26.253704 0.000000 33.147579
RightShoulder 4.359927 43.594755 -38.212765
RightArm 49.127932 15.510369 116.718272
RightForeArm 23.745289 -0.000000 104.975914
RightHand -7.415397 -0.000000 2.808396
RightHandThumb1 -24.326973 -0.000000 -32.862282
LeftUpLeg -2.312820 -6.504677 -1.108452
LeftLeg 1.351042 -0.000000 -0.000000
LeftFoot -14.873200 13.162661 -24.285824
LeftToeBase 8.524317 -0.000000 -0.000000
RightUpLeg 3.615698 -9.823849 -3.938173
RightLeg -3.953903 -0.000000 0.000000
RightFoot -16.369459 -17.703094 10.699753
RightToeBase 5.251753 -0.000000 -0.000000
589
root -1.520004 31.897102 -6.512122 5.832033 16.679874 4.549302
Spine -7.983128 2.146893 -0.780328
Head -0.726712 -15.671149 8.246212
LeftShoulder -7.709750 16.023449 6.098432
LeftArm 24.121617 41.284011 -71.628939
LeftForeArm -3.428565 -0.000000 15.083437
LeftHand -10.595251 -0.000000 -5.316030
LeftHandThumb1 -26.253704 0.000000 33.147579
RightShoulder 4.406097 43.576091 -38.171191
RightArm 49.121948 15.597733 116.806050
RightForeArm 24.023345 -0.000000 105.181153
RightHand -7.414820 -0.000000 2.815550
RightHandThumb1 -24.326973 -0.000000 -32.862282
LeftUpLeg -2.310486 -6.490971 -1.109838
LeftLeg 1.352898 -0.000000 -0.000000
LeftFoot -14.870875 13.148304 -24.295808
LeftToeBase 8.531821 -0.000000 -0.000000
RightUpLeg 3.616396 -9.819611 -3.938915
RightLeg -3.952195 -0.000000 0.000000
RightFoot -16.374858 -17.692375 10.713385
RightToeBase 5.263897 -0.000000 -0.000000
590
root -1.519599 31.897392 -6.513361 5.831896 16.683576 4.548484
Spine -7.986529 2.183091 -0.780669
Head -0.703297 -15.673650 8.158547
LeftShoulder -7.682201 16.014205 6.102777
LeftArm 24.142473 41.302596 -71.607457
LeftForeArm -3.473314 0.000000 15.062591
LeftHand -10.586971 0.000000 -5.522434
LeftHandThumb1 -26.253704 0.000000 33.147579
RightShoulder 4.447398 43.548151 -38.153115
RightArm 49.101447 15.731821 116.915536
RightForeArm 24.574965 -0.000000 105.468006
RightHand -7.381922 0.000000 2.844299
RightHandThumb1 -24.326973 -0.000000 -32.862282
LeftUpLeg -2.317240 -6.500620 -1.109075
LeftLeg 1.361665 -0.000000 -0.000000
LeftFoot -14.873588 13.150044 -24.300524
LeftToeBase 8.532432 -0.000000 -0.000000
RightUpLeg 3.611493 -9.823119 -3.939669
RightLeg -3.943390 -0.000000 0.000000
RightFoot -16.376658 -17.697977 10.709509
RightToeBase 5.267051 -0.000000 -0.000000
591
root -1.521333 31.897718 -6.513424 5.827788 16.681815 4.536904
Spine -7.988905 2.211496 -0.776130
Head -0.676791 -15.666744 8.054654
LeftShoulder -7.675094 16.002835 6.111403
LeftArm 24.150872 41.315300 -71.599910
LeftForeArm -3.457191 -0.000000 15.059323
LeftHand -10.620997 -0.000000 -5.491167
LeftHandThumb1 -26.253704 0.000000 33.147579
RightShoulder 4.520344 43.527014 -38.103795
RightArm 49.097844 15.892081 117.080544
RightForeArm 25.256001 0.000000 105.790995
RightHand -7.294114 0.000000 2.704451
RightHandThumb1 -24.326973 -0.000000 -32.862282
LeftUpLeg -2.317452 -6.488205 -1.095385
LeftLeg 1.362852 -0.000000 -0.000000
LeftFoot -14.871562 13.138877 -24.302188
LeftToeBase 8.516229 -0.000000 -0.000000
RightUpLeg 3.611900 -9.845011 -3.930689
RightLeg -3.944054 -0.000000 0.000000
RightFoot -16.366491 -17.636031 10.770929
RightToeBase 5.249992 -0.000000 -0.000000
